<svg width="538" height="200" viewBox="0 0 538 200" fill="none" xmlns="http://www.w3.org/2000/svg">
<g clip-path="url(#clip0_3913_15182)">
<path d="M23.0991 0H134.309L136.361 49.8518H68.0096L67.6794 68.1879C67.6794 68.1879 97.5457 67.7255 114.631 74.3507C131.716 80.9758 134.829 87.2964 139.869 95.8416C143.059 102.534 144.529 109.922 144.145 117.333C144.145 117.333 155.086 154.755 139.869 173.206C124.651 191.656 95.1692 197.454 81.4026 199.054C70.2963 199.999 59.1183 199.645 48.0933 197.998C30.7224 194.895 14.2743 187.886 -0.0219727 177.497L15.8017 124.192C15.8017 124.192 38.0458 141.38 57.2908 143.964C76.5359 146.547 96.214 149.947 99.2076 127.646C102.201 105.344 48.4235 109.195 13.9774 107.476L23.0991 0Z" fill="url(#paint0_linear_3913_15182)"/>
<path d="M28.4208 5.44482H130.314V42.661H63.3271L61.8925 73.6653C72.4883 73.153 83.1078 73.8556 93.5453 75.7595C110.679 78.9143 118.301 81.6394 125.323 86.1595C130.887 90.6901 135.709 96.0698 139.614 102.102C142.711 107.63 144.858 113.644 145.964 119.889C145.964 119.889 154.269 145.998 139.322 164.345C125.23 180.064 106.147 190.384 85.3276 193.543C74.4179 194.483 63.4361 194.131 52.6083 192.494C36.2114 189.79 20.621 183.446 6.97241 173.924L19.4939 133.792C28.0716 139.466 37.236 144.19 46.8267 147.88C54.6709 150.67 70.2672 156.387 85.333 151.731C100.399 147.075 104.54 141.864 107.084 129.25C107.682 125.116 106.95 120.898 104.997 117.21C103.044 113.522 99.9711 110.556 96.225 108.744C81.8196 102.189 53.3337 102.875 19.4939 101.167L28.4208 5.44482Z" fill="url(#paint1_linear_3913_15182)"/>
<path d="M280.452 200H244.458V64.6846H280.452V200ZM179.003 199.755C174.849 199.514 170.724 198.906 166.676 197.938C163.591 197.204 161.642 196.529 161.561 196.497C161.479 196.464 158.708 195.599 154.886 193.94C150.161 191.93 145.67 189.406 141.493 186.412C137.379 183.257 133.614 179.666 130.265 175.702C127.472 172.438 125.766 169.991 125.75 169.969C124.521 168.047 123.389 166.062 122.361 164.024C120.047 159.551 118.232 154.836 116.948 149.963C115.758 144.813 115.084 139.556 114.934 134.27C114.777 129.919 114.934 126.824 114.934 126.693C114.934 126.666 115.151 123.789 115.887 119.715C116.744 114.769 118.134 109.932 120.034 105.289C122.068 100.733 124.595 96.4154 127.569 92.4145C129.967 89.1509 131.9 87.0078 131.9 86.9752C133.469 85.2107 135.137 83.5381 136.897 81.9655C138.692 80.3394 140.567 78.8054 142.516 77.3692C144.783 75.691 147.17 74.1821 149.656 72.8546C154.669 70.3324 159.931 68.3452 165.355 66.9257C169.924 65.6964 173.259 65.1198 173.292 65.1144C176.458 64.8109 179.638 64.6675 182.819 64.6846C191.818 64.5753 200.783 65.8183 209.416 68.3725C213.389 69.6676 217.203 71.4122 220.784 73.5726C223.796 75.3854 226.657 77.441 229.338 79.719C231.976 81.9185 234.411 84.3525 236.614 86.9915L220.839 106.279C220.839 106.279 218.673 104.718 215.051 102.679C210.294 99.9925 205.309 97.7372 200.154 95.9392C196.167 94.6314 191.993 93.9936 187.8 94.0518C181.665 94.1116 175.575 95.1131 169.74 97.0217C163.337 99.7955 157.882 104.391 154.046 110.243C150.211 116.094 148.164 122.945 148.157 129.952C147.474 136.881 148.784 143.862 151.933 150.066C155.081 156.269 159.935 161.434 165.918 164.948C173.386 168.608 181.561 170.581 189.868 170.73C192.693 170.741 195.512 170.447 198.275 169.855C204.153 168.507 209.733 166.078 214.732 162.691C216.921 161.251 218.974 159.612 220.866 157.796L236.565 179.047C235.454 180.327 234.269 181.539 233.014 182.675C229.685 185.712 226.093 188.443 222.279 190.834C219.893 192.315 217.376 193.57 214.759 194.582C209.993 196.431 205.039 197.744 199.986 198.498C194.246 199.322 188.46 199.767 182.662 199.831C181.407 199.842 180.161 199.809 179.003 199.749V199.755ZM375.865 199.614L345.901 196.894L313.188 199.614V89.2651L313.296 89.2325H288.529L288.345 64.5378L406.105 64.4453V89.2379H375.865V199.608V199.614ZM345.896 196.078L347.791 196.388L345.701 82.3136L376.147 88.8409L344.808 77.9621L313.469 88.8409L344.034 82.2592L343.4 196.377L345.896 196.067V196.078ZM316.663 180.304V186.831L326.234 184.916V178.128L316.663 180.304ZM330.316 177.1V183.627L339.887 181.713V174.935L330.316 177.1ZM316.663 167.097V173.624L326.234 171.71V164.938L316.663 167.097ZM330.316 164.606V171.133L339.887 169.218V162.441L330.316 164.606ZM316.663 154.761V161.288L326.234 159.373V152.601L316.663 154.761ZM330.316 152.269V158.797L339.887 156.882V150.104L330.316 152.269ZM316.663 142.272V148.799L326.234 146.884V140.107L316.663 142.272ZM330.316 139.073V145.601L339.887 143.686V136.898L330.316 139.073ZM316.663 129.07V135.598L326.234 133.683V126.9L316.663 129.07ZM330.316 126.579V133.106L339.887 131.192V124.403L330.316 126.579ZM316.685 118.012V124.539L326.256 122.625V115.842L316.685 118.012ZM330.316 115.521V122.048L339.887 120.134V113.345L330.316 115.521ZM316.685 105.518V112.045L326.256 110.136V103.348L316.685 105.518ZM330.316 102.314V108.841L339.887 106.927V100.138L330.316 102.314ZM316.685 92.3112V98.8384L326.256 96.9238V90.1409L316.685 92.3112ZM330.316 89.8199V96.3472L339.887 94.4325V87.6442L330.316 89.8199Z" fill="white"/>
<path d="M411.567 64.3423H444.124L475.582 127.76L505.508 64.3423H537.989L495.06 148.353V197.117H455.33V148.353L411.567 64.3423Z" fill="white"/>
<path d="M309.292 32.0106C309.292 30.1193 307.512 29.2219 306.214 28.5618C305.904 28.4128 305.599 28.252 305.301 28.0797C305.379 27.7237 305.561 27.1935 305.672 26.8412C306.165 25.3727 306.777 23.5407 305.583 22.2391C304.656 21.2267 303.432 21.3232 302.327 21.6384C301.371 12.7198 294.421 4.24629 287.824 1.55404L285.762 0.701121C280.986 -1.29025 278.59 -2.2915 271.886 -2.2915C264.866 -2.2915 259.604 1.69495 256.967 8.967C249.717 10.328 241.251 21.898 241.251 31.0835C241.251 38.3704 237.802 43.3952 235.448 45.9836C231.546 46.3247 227.708 48.8575 227.708 53.3335C227.708 55.5696 228.305 57.1345 228.787 58.3917C229.132 59.2817 229.399 59.9862 229.399 60.7502C229.399 61.3695 229.229 61.7403 228.921 62.4189C228.413 63.5351 227.708 65.0741 227.708 68.1668C227.708 75.5761 250.292 79.2918 262.937 79.2918C275.583 79.2918 298.167 75.5761 298.167 68.1668C298.167 64.7589 296.613 63.0605 295.586 61.9368C294.963 61.2508 294.781 61.0097 294.781 60.7502C294.781 59.9862 295.052 59.2817 295.393 58.3917C295.875 57.1308 296.476 55.5696 296.476 53.3335C296.476 49.1727 294.136 46.3989 290.461 45.9984C289.545 45.0305 289.163 43.8179 289.033 42.5015C289.997 42.5571 290.98 42.2196 291.833 41.897C292.066 41.8043 292.4 41.6745 292.678 41.5892C292.819 41.8822 292.975 42.2641 293.086 42.5274C293.728 44.0404 294.518 45.9168 296.431 45.9168C298.352 45.9168 299.138 44.0367 299.776 42.5274C299.895 42.2419 300.069 41.834 300.125 41.5966C300.406 41.6893 300.755 41.8302 301 41.9304C302.301 42.4495 304.259 43.2283 305.583 41.782C306.777 40.4767 306.165 38.6485 305.672 37.18C305.561 36.8277 305.379 36.2974 305.301 35.9451C305.554 35.7894 305.932 35.5965 306.214 35.4556C307.512 34.7992 309.292 33.9055 309.292 32.0106V32.0106Z" fill="#080A0B"/>
<path d="M244.96 31.0832C244.96 23.0806 253.377 12.5415 258.343 12.5415C258.738 12.541 259.123 12.4141 259.442 12.1793C259.76 11.9444 259.995 11.614 260.112 11.2362C261.499 6.7565 264.669 1.4165 271.886 1.4165C277.849 1.4165 279.747 2.21009 284.338 4.12359L286.419 4.98763C291.024 6.86775 296.005 12.5304 297.94 18.6565C297.515 18.3051 296.983 18.1101 296.431 18.104C294.518 18.104 293.724 19.9804 293.09 21.4934C292.955 21.7967 292.837 22.1074 292.738 22.4242C292.46 22.3315 292.111 22.1906 291.87 22.0942C291.102 21.7864 290.105 21.4415 289.141 21.4638C287.858 19.1127 285.503 16.68 281.153 14.5811C280.714 14.3966 280.222 14.3877 279.777 14.5561C279.332 14.7246 278.969 15.0576 278.763 15.4863C278.557 15.9149 278.523 16.4064 278.669 16.8591C278.815 17.3118 279.129 17.6911 279.547 17.9186C284.743 20.4254 286.281 23.2252 286.745 25.7358C286.83 26.1956 286.886 26.648 286.916 27.0819L286.942 27.4156C286.964 27.9125 286.964 28.3983 286.964 28.8508V29.229C286.964 30.5937 286.545 32.1512 286.141 33.653C285.714 35.2513 285.265 36.9053 285.265 38.4998L285.251 39.5864C285.184 42.338 285.095 46.0648 287.95 48.8275L287.958 48.8424V48.872C287.996 49.0353 288.021 49.2015 288.032 49.369L288.028 49.5915C288.022 49.7773 288 49.9622 287.961 50.144C287.877 50.5781 287.711 50.9922 287.472 51.364C286.085 53.4815 281.056 57.0415 262.938 57.0415C244.819 57.0415 239.79 53.4815 238.403 51.364C238.213 51.0709 238.068 50.7509 237.973 50.4147C237.94 50.3072 237.929 50.2108 237.91 50.1106C237.875 49.9396 237.854 49.7659 237.847 49.5915V49.3319C237.857 49.1985 237.875 49.066 237.903 48.9351L237.921 48.8238L237.943 48.7682C240.688 45.8312 244.96 39.8423 244.96 31.0832V31.0832Z" fill="#D32F2F"/>
<path d="M292.845 64.436C293.717 65.3853 294.458 66.2012 294.458 68.1666C294.336 70.3174 280.574 75.5833 262.938 75.5833C245.301 75.5833 231.539 70.3174 231.417 68.1666C231.417 65.8823 231.862 64.9033 232.296 63.9539C232.678 63.1196 233.111 62.1739 233.111 60.7499C233.111 59.2963 232.674 58.1615 232.255 57.0638C231.821 55.9439 231.417 54.8833 231.417 53.3333C231.417 51.4754 232.793 50.5001 234.146 50.0217C234.168 50.2961 234.254 50.5928 234.309 50.8784C234.346 51.0675 234.361 51.2492 234.417 51.442C234.587 52.0353 234.828 52.6398 235.21 53.2517C238.314 58.2283 247.641 60.7499 262.938 60.7499C278.234 60.7499 287.561 58.2283 290.665 53.2517C291.036 52.6584 291.266 52.0724 291.436 51.4939C291.492 51.3048 291.518 51.1305 291.555 50.9451C291.603 50.7226 291.681 50.4964 291.703 50.2813C292.415 50.8821 292.767 51.8944 292.767 53.3333C292.767 54.8833 292.36 55.9439 291.929 57.0638C291.507 58.1615 291.073 59.2963 291.073 60.7499C291.073 62.4928 292.059 63.5683 292.845 64.436V64.436ZM304.545 32.1439C303.447 32.7001 302.201 33.3231 301.745 34.5469C301.285 35.7446 301.73 37.0685 302.157 38.3516L302.175 38.4035C301.026 37.9511 299.765 37.5024 298.578 38.0327C297.473 38.537 296.932 39.7237 296.431 40.9103C295.931 39.7237 295.389 38.537 294.284 38.0364C293.034 37.469 291.696 37.9808 290.509 38.4295C290.313 38.5036 290.053 38.6038 289.812 38.6891C289.819 38.4777 289.842 38.2441 289.856 38.0512C289.931 37.2131 290.005 36.1377 289.597 35.1031C289.645 34.9362 289.675 34.7842 289.723 34.6173C290.135 33.0784 290.509 31.4504 290.602 29.5703C290.624 29.4553 290.672 29.3478 290.672 29.2291V28.8323C290.679 28.214 290.667 27.5957 290.635 26.9781C290.609 26.4966 290.561 26.0164 290.491 25.5393C291.681 26.014 293.023 26.5554 294.284 25.9843C295.389 25.4837 295.931 24.297 296.435 23.1104C296.936 24.297 297.477 25.4837 298.586 25.9843C299.754 26.5183 301.033 26.0696 302.175 25.6135L302.157 25.6691C301.73 26.9522 301.285 28.2761 301.742 29.4701C302.201 30.6939 303.447 31.3243 304.545 31.8769L304.808 32.0104L304.545 32.1439V32.1439Z" fill="white"/>
<path d="M235.125 68.1666C235.125 63.5311 236.534 63.1826 236.534 60.7499C236.534 58.3172 235.125 56.8079 235.125 53.3332C235.125 53.2553 235.151 53.1997 235.155 53.1218C234.838 52.5958 234.59 52.0312 234.417 51.442C234.361 51.2454 234.346 51.0711 234.309 50.8783C234.254 50.5928 234.168 50.2961 234.146 50.0254C232.793 50.5001 231.417 51.4716 231.417 53.3332C231.417 54.8833 231.825 55.9439 232.255 57.0638C232.674 58.1615 233.108 59.2962 233.108 60.7499C233.108 62.1739 232.678 63.1232 232.296 63.9539C231.862 64.9032 231.417 65.8822 231.417 68.1666C231.469 69.064 233.927 70.5065 238.029 71.8823C236.212 70.6882 235.125 69.4163 235.125 68.1666Z" fill="url(#paint2_linear_3913_15182)"/>
<path opacity="0.1" d="M291.073 60.7499C291.073 59.2962 291.507 58.1615 291.929 57.0638C292.363 55.9439 292.767 54.8833 292.767 53.3332C292.767 51.8944 292.415 50.882 291.703 50.2812C291.681 50.4963 291.603 50.7263 291.555 50.9488C291.518 51.1305 291.492 51.3047 291.436 51.4939C291.261 52.1124 291.001 52.7039 290.665 53.2516C290.268 53.882 289.771 54.4754 289.174 55.0279C288.829 57.3456 287.928 58.7659 287.928 60.7499C287.928 63.1825 290.75 63.5311 290.75 68.1665C290.75 69.4162 289.667 70.6882 287.846 71.8823C291.948 70.5102 294.41 69.064 294.458 68.1665C294.458 66.2011 293.713 65.3816 292.845 64.436C292.059 63.5682 291.073 62.4928 291.073 60.7499V60.7499Z" fill="black"/>
<path opacity="0.2" d="M273.766 3.47463C274.548 3.34484 275.371 3.27067 276.239 3.27067C280.43 3.27067 282.796 3.67859 285.273 4.51296L284.338 4.12359C279.747 2.21009 277.845 1.4165 271.886 1.4165C264.669 1.4165 261.502 6.7565 260.112 11.2362C259.995 11.614 259.76 11.9444 259.442 12.1793C259.123 12.4141 258.738 12.541 258.343 12.5415C253.374 12.5415 244.959 23.0806 244.959 31.0832C244.959 39.8423 240.687 45.8312 237.943 48.7682L237.921 48.8275L237.902 48.9388C237.876 49.0685 237.859 49.1998 237.851 49.3319C237.839 49.5929 237.858 49.8544 237.91 50.1106C237.928 50.2108 237.94 50.3072 237.973 50.4147C238.058 50.7114 238.184 51.0303 238.403 51.364C238.759 51.9092 239.364 52.547 240.357 53.196C240.285 52.6932 240.32 52.1807 240.46 51.6924C240.6 51.2041 240.842 50.7509 241.17 50.3628C244.858 46.0377 246.881 40.5386 246.877 34.8545C246.877 26.4885 254.872 15.8827 260.931 14.5885C261.751 14.4142 262.34 13.7133 262.644 12.9272C264.621 7.8208 268.24 4.16067 273.762 3.47463H273.766Z" fill="white"/>
<path opacity="0.1" d="M287.958 48.8424L287.95 48.8275C285.095 46.0648 285.184 42.338 285.25 39.5864L285.262 38.4998C285.262 36.9052 285.707 35.2513 286.137 33.653C286.545 32.1512 286.96 30.5937 286.96 29.229V28.8507C286.96 28.3983 286.96 27.9125 286.938 27.4119L286.912 27.0819C286.882 26.6302 286.825 26.1806 286.741 25.7357C286.37 23.7332 285.284 21.549 282.236 19.4761C282.729 22.2017 282.606 25.0423 282.606 26.4477C282.606 29.8705 280.912 33.5455 280.912 36.5863C280.912 38.752 282.135 42.9721 282.84 45.2267C283.237 46.4876 283.318 47.8411 282.996 49.1205C282.224 52.1984 280.189 54.7609 277.396 55.9512L277.318 55.9809C284.049 54.7646 286.56 52.7547 287.468 51.364C287.656 51.0731 287.8 50.7556 287.895 50.4221C287.924 50.3257 287.939 50.2367 287.958 50.144C287.996 49.9622 288.018 49.7772 288.024 49.5915V49.369C288.016 49.2017 287.994 49.0355 287.958 48.872L287.954 48.8424H287.958Z" fill="black"/>
<path d="M309.292 32.0106C309.292 30.1193 307.512 29.2219 306.214 28.5618C305.904 28.4128 305.599 28.252 305.301 28.0797C305.379 27.7237 305.561 27.1935 305.672 26.8412C306.165 25.3727 306.777 23.5407 305.583 22.2391C304.656 21.2267 303.432 21.3232 302.327 21.6384C301.371 12.7198 294.421 4.24629 287.824 1.55404L285.762 0.701121C280.986 -1.29025 278.59 -2.2915 271.886 -2.2915C264.866 -2.2915 259.604 1.69495 256.967 8.967C249.717 10.328 241.251 21.898 241.251 31.0835C241.251 38.3704 237.802 43.3952 235.448 45.9836C231.546 46.3247 227.708 48.8575 227.708 53.3335C227.708 55.5696 228.305 57.1345 228.787 58.3917C229.132 59.2817 229.399 59.9862 229.399 60.7502C229.399 61.3695 229.229 61.7403 228.921 62.4189C228.413 63.5351 227.708 65.0741 227.708 68.1668C227.708 75.5761 250.292 79.2918 262.937 79.2918C275.583 79.2918 298.167 75.5761 298.167 68.1668C298.167 64.7589 296.613 63.0605 295.586 61.9368C294.963 61.2508 294.781 61.0097 294.781 60.7502C294.781 59.9862 295.052 59.2817 295.393 58.3917C295.875 57.1308 296.476 55.5696 296.476 53.3335C296.476 49.1727 294.136 46.3989 290.461 45.9984C289.545 45.0305 289.163 43.8179 289.033 42.5015C289.997 42.5571 290.98 42.2196 291.833 41.897C292.066 41.8043 292.4 41.6745 292.678 41.5892C292.819 41.8822 292.975 42.2641 293.086 42.5274C293.728 44.0404 294.518 45.9168 296.431 45.9168C298.352 45.9168 299.138 44.0367 299.776 42.5274C299.895 42.2419 300.069 41.834 300.125 41.5966C300.406 41.6893 300.755 41.8302 301 41.9304C302.301 42.4495 304.259 43.2283 305.583 41.782C306.777 40.4767 306.165 38.6485 305.672 37.18C305.561 36.8277 305.379 36.2974 305.301 35.9451C305.554 35.7894 305.932 35.5965 306.214 35.4556C307.512 34.7992 309.292 33.9055 309.292 32.0106V32.0106Z" fill="url(#paint3_linear_3913_15182)"/>
<g clip-path="url(#clip1_3913_15182)">
<path d="M421.855 166.987V197.053C421.855 197.954 421.497 198.818 420.86 199.455C420.222 200.093 419.358 200.451 418.457 200.451H405.543C404.642 200.451 403.778 200.093 403.14 199.455C402.503 198.818 402.145 197.954 402.145 197.053V166.987H421.855Z" fill="#D88A55"/>
<path d="M421.855 166.987V190.592L402.145 170.508V166.987H421.855V166.987Z" fill="#C57A44"/>
<path d="M450.742 195.693C454.965 195.693 458.389 192.27 458.389 188.047C458.389 183.824 454.965 180.4 450.742 180.4C446.519 180.4 443.096 183.824 443.096 188.047C443.096 192.27 446.519 195.693 450.742 195.693Z" fill="#FED402"/>
<path d="M455.295 181.904C455.797 183.446 455.795 185.107 455.29 186.648C454.786 188.188 453.805 189.529 452.489 190.475C451.173 191.422 449.59 191.926 447.969 191.915C446.348 191.903 444.773 191.377 443.47 190.411C443.842 191.556 444.479 192.596 445.329 193.448C446.18 194.3 447.219 194.94 448.363 195.314C449.507 195.689 450.723 195.788 451.912 195.604C453.101 195.42 454.23 194.957 455.207 194.254C456.185 193.552 456.982 192.628 457.535 191.559C458.087 190.49 458.38 189.305 458.388 188.102C458.397 186.898 458.121 185.71 457.584 184.633C457.046 183.556 456.262 182.621 455.295 181.904V181.904Z" fill="#FAC600"/>
<path d="M373.258 195.693C377.481 195.693 380.904 192.27 380.904 188.047C380.904 183.824 377.481 180.4 373.258 180.4C369.035 180.4 365.611 183.824 365.611 188.047C365.611 192.27 369.035 195.693 373.258 195.693Z" fill="#FED402"/>
<path d="M473.4 163.894C453.527 168.378 433.222 170.668 412.85 170.722C394.048 170.786 375.288 168.947 356.857 165.233C354.679 164.795 352.589 164.343 350.587 163.891C350.064 163.78 349.582 163.527 349.194 163.16C349.143 163.114 349.096 163.065 349.051 163.014C349.051 163.011 349.051 163.011 349.047 163.011C348.961 162.91 348.883 162.804 348.813 162.691C348.747 162.577 348.688 162.459 348.636 162.338C348.609 162.263 348.585 162.192 348.565 162.117C348.565 162.112 348.564 162.107 348.561 162.103C348.548 162.042 348.534 161.978 348.524 161.913C348.521 161.904 348.52 161.895 348.521 161.886C348.514 161.838 348.507 161.791 348.504 161.743C348.497 161.642 348.497 161.541 348.504 161.441C348.542 160.947 348.753 160.483 349.098 160.129L349.384 159.823L406.732 98.3997L409.764 95.1541C409.834 95.0785 409.909 95.007 409.988 94.94C410.561 94.4877 411.27 94.2417 412 94.2417C412.73 94.2417 413.439 94.4877 414.012 94.94C414.091 95.007 414.166 95.0785 414.236 95.1541L450.27 133.747L453.777 137.502L474.902 160.129C476.156 161.475 475.364 163.449 473.4 163.894Z" fill="#46CC8D"/>
<path d="M473.4 163.894C453.527 168.378 433.222 170.667 412.85 170.721C394.048 170.785 375.288 168.946 356.857 165.233C354.679 164.795 352.589 164.343 350.587 163.891C350.064 163.78 349.582 163.527 349.194 163.16C349.143 163.114 349.096 163.065 349.051 163.014C349.051 163.01 349.051 163.01 349.047 163.01C348.961 162.91 348.883 162.803 348.813 162.691C348.747 162.577 348.688 162.459 348.636 162.337C348.609 162.263 348.585 162.191 348.565 162.117C348.565 162.112 348.564 162.107 348.561 162.103C348.548 162.042 348.534 161.977 348.524 161.913C348.521 161.904 348.52 161.895 348.521 161.885C348.514 161.838 348.507 161.79 348.504 161.743C348.497 161.642 348.497 161.541 348.504 161.44C356.112 163.02 363.802 164.177 371.538 164.903C380.186 165.72 388.877 165.961 397.557 165.624C418.07 164.818 439.84 160.105 451.361 157.26C452.218 157.048 453.005 156.615 453.644 156.005C454.283 155.395 454.751 154.628 455.002 153.781C455.253 152.934 455.278 152.036 455.075 151.177C454.872 150.317 454.448 149.525 453.845 148.88L447.123 141.675L443.555 137.855L406.732 98.3993L409.764 95.1538C409.834 95.0781 409.909 95.0066 409.988 94.9397C410.545 94.4517 411.26 94.1826 412 94.1826C412.74 94.1826 413.455 94.4517 414.012 94.9397C414.091 95.0066 414.166 95.0781 414.236 95.1538L450.27 133.746L453.777 137.502L474.902 160.129C476.156 161.474 475.364 163.449 473.4 163.894Z" fill="#00C27A"/>
<path d="M464.149 131.469C447.271 135.279 430.026 137.223 412.724 137.267C394.932 137.331 377.189 135.385 359.834 131.466C358.172 131.089 357.509 129.41 358.57 128.272L379.922 105.403L410.1 73.081C410.608 72.5843 411.29 72.3062 412 72.3062C412.71 72.3062 413.392 72.5843 413.9 73.081L444.074 105.403L465.427 128.272C466.494 129.413 465.821 131.092 464.149 131.469V131.469Z" fill="#46CC8D"/>
<path d="M464.149 131.469C447.267 135.254 430.025 137.198 412.724 137.267C394.932 137.331 377.189 135.385 359.834 131.466C358.512 131.167 357.822 130.042 358.131 129.023C358.216 128.741 358.366 128.484 358.57 128.272L379.922 105.403L382.304 102.851L385.784 99.1232L406.732 76.6867L410.1 73.081C410.608 72.5843 411.29 72.3062 412 72.3062C412.71 72.3062 413.392 72.5843 413.9 73.081L444.074 105.403L464.791 127.592H464.795L465.427 128.272C466.494 129.413 465.821 131.092 464.149 131.469V131.469Z" fill="#46CC8D"/>
<path d="M464.149 131.469C462.409 131.864 460.589 132.252 458.688 132.635C443.554 135.674 428.159 137.226 412.724 137.267C394.932 137.331 377.189 135.385 359.834 131.466C358.512 131.167 357.822 130.042 358.131 129.023C371.121 131.16 384.266 132.213 397.431 132.17C407.12 132.142 419.205 130.192 429.359 128.115C433.621 127.242 437.539 126.348 440.798 125.563C441.227 125.461 441.641 125.363 442.042 125.264C442.878 125.06 443.645 124.64 444.268 124.047C444.892 123.454 445.349 122.708 445.594 121.884C445.84 121.06 445.866 120.185 445.669 119.348C445.472 118.511 445.059 117.74 444.472 117.111L428.781 100.306L406.732 76.6867L410.1 73.081C410.608 72.5843 411.29 72.3062 412 72.3062C412.71 72.3062 413.392 72.5843 413.9 73.081L444.074 105.403L464.795 127.592L465.427 128.272C466.494 129.413 465.821 131.092 464.149 131.469V131.469Z" fill="#00C27A"/>
<path d="M374.764 155.732C376.172 155.732 377.313 154.591 377.313 153.184C377.313 151.776 376.172 150.635 374.764 150.635C373.357 150.635 372.216 151.776 372.216 153.184C372.216 154.591 373.357 155.732 374.764 155.732Z" fill="#0067C5"/>
<path d="M421.855 164.612C426.079 164.612 429.502 161.188 429.502 156.965C429.502 152.742 426.079 149.319 421.855 149.319C417.632 149.319 414.209 152.742 414.209 156.965C414.209 161.188 417.632 164.612 421.855 164.612Z" fill="#00C27A"/>
<path d="M370.685 96.1769C370.588 96.2801 370.507 96.3969 370.444 96.5236C370.424 96.5611 370.406 96.5997 370.39 96.6391C370.376 96.6799 370.359 96.7207 370.349 96.7615C370.118 97.5465 370.651 98.4063 371.671 98.6374C373.224 98.9908 374.861 99.3375 376.582 99.6773C380.287 99.2713 383.965 98.6449 387.596 97.8014C381.499 97.4989 375.841 96.9144 370.685 96.1769V96.1769ZM422.651 74.6172L426.134 78.3487C428.078 76.6801 429.952 74.9254 431.755 73.0846L428.279 69.3599C428.249 69.384 428.22 69.4102 428.194 69.438C426.42 71.2494 424.572 72.9758 422.651 74.6172V74.6172Z" fill="#F4D902"/>
<path d="M418.908 162.063C423.131 162.063 426.555 158.64 426.555 154.417C426.555 150.193 423.131 146.77 418.908 146.77C414.685 146.77 411.262 150.193 411.262 154.417C411.262 158.64 414.685 162.063 418.908 162.063Z" fill="#E53950"/>
<path d="M390.948 147.928C395.171 147.928 398.594 144.505 398.594 140.282C398.594 136.059 395.171 132.635 390.948 132.635C386.725 132.635 383.301 136.059 383.301 140.282C383.301 144.505 386.725 147.928 390.948 147.928Z" fill="#00C27A"/>
<path d="M388.351 144.917C392.574 144.917 395.998 141.493 395.998 137.27C395.998 133.047 392.574 129.624 388.351 129.624C384.128 129.624 380.705 133.047 380.705 137.27C380.705 141.493 384.128 144.917 388.351 144.917Z" fill="#E53950"/>
<path d="M377.811 181.904C378.312 183.446 378.31 185.107 377.806 186.648C377.302 188.188 376.321 189.529 375.005 190.475C373.689 191.422 372.106 191.926 370.485 191.915C368.864 191.903 367.288 191.377 365.986 190.411C366.358 191.556 366.995 192.596 367.845 193.448C368.695 194.3 369.735 194.94 370.878 195.314C372.022 195.689 373.238 195.788 374.428 195.604C375.617 195.42 376.746 194.957 377.723 194.254C378.7 193.552 379.497 192.628 380.05 191.559C380.603 190.49 380.895 189.305 380.904 188.102C380.913 186.898 380.637 185.71 380.099 184.633C379.562 183.556 378.778 182.621 377.811 181.904V181.904Z" fill="#FAC600"/>
<path d="M452.319 98.6408C439.269 101.586 425.935 103.09 412.557 103.123C400.481 103.164 388.43 102.01 376.582 99.6773C374.862 99.3374 373.225 98.9908 371.671 98.6374C370.651 98.4063 370.118 97.5465 370.349 96.7614C370.359 96.7206 370.376 96.6799 370.39 96.6391C370.406 96.5996 370.424 96.5611 370.444 96.5235C370.507 96.3968 370.588 96.28 370.685 96.1769L370.692 96.1701L371.807 94.9772L406.732 57.5672L410.532 53.4993C410.924 53.1154 411.451 52.9004 412 52.9004C412.549 52.9004 413.076 53.1154 413.468 53.4993L428.279 69.3598L431.755 73.0845L453.308 96.1701C454.13 97.0503 453.611 98.3485 452.319 98.6408V98.6408Z" fill="#46CC8D"/>
<path d="M452.319 98.641C439.269 101.587 425.935 103.09 412.557 103.124C400.481 103.164 388.43 102.01 376.582 99.6775C374.862 99.3377 373.225 98.991 371.671 98.6376C370.651 98.4065 370.118 97.5467 370.349 96.7616C370.359 96.7209 370.376 96.6801 370.39 96.6393C370.406 96.5998 370.424 96.5613 370.444 96.5238C370.507 96.397 370.588 96.2803 370.685 96.1771C379.489 97.4357 388.372 98.0536 397.264 98.0259C406.984 97.9987 419.827 95.4668 428.472 93.4686C429.454 93.2421 430.359 92.7612 431.095 92.0742C431.832 91.3872 432.375 90.5183 432.67 89.5548C432.964 88.5914 433 87.5674 432.773 86.5859C432.546 85.6043 432.065 84.6997 431.378 83.9631L426.134 78.3489L422.651 74.6174L406.732 57.5675L410.532 53.4995C410.72 53.2984 410.947 53.1381 411.2 53.0285C411.452 52.9189 411.725 52.8623 412 52.8623C412.275 52.8623 412.548 52.9189 412.8 53.0285C413.053 53.1381 413.28 53.2984 413.468 53.4995L428.279 69.36L431.755 73.0847L453.308 96.1703C454.13 97.0505 453.611 98.3487 452.319 98.641V98.641Z" fill="#00C27A"/>
<path d="M427.203 114.97C431.426 114.97 434.849 111.547 434.849 107.324C434.849 103.101 431.426 99.6772 427.203 99.6772C422.98 99.6772 419.556 103.101 419.556 107.324C419.556 111.547 422.98 114.97 427.203 114.97Z" fill="#00C27A"/>
<path d="M424.936 111.462C429.159 111.462 432.582 108.039 432.582 103.816C432.582 99.5929 429.159 96.1694 424.936 96.1694C420.713 96.1694 417.289 99.5929 417.289 103.816C417.289 108.039 420.713 111.462 424.936 111.462Z" fill="#E53950"/>
<path d="M413.225 32.3105L416.585 39.1175C416.683 39.3162 416.827 39.488 417.007 39.6182C417.186 39.7484 417.394 39.833 417.613 39.8648L425.125 40.9564C425.377 40.9931 425.614 41.0996 425.809 41.2639C426.004 41.4282 426.149 41.6438 426.228 41.8862C426.307 42.1287 426.316 42.3883 426.255 42.6358C426.194 42.8833 426.065 43.1088 425.882 43.2867L420.447 48.5849C420.288 48.7395 420.169 48.9304 420.101 49.1411C420.032 49.3518 420.016 49.576 420.054 49.7944L421.337 57.2757C421.38 57.527 421.352 57.7853 421.256 58.0215C421.16 58.2576 421 58.4622 420.794 58.612C420.587 58.7619 420.343 58.851 420.089 58.8694C419.835 58.8878 419.58 58.8346 419.355 58.716L412.636 55.184C412.44 55.0809 412.222 55.027 412 55.027C411.779 55.027 411.56 55.0809 411.364 55.184L404.646 58.716C404.42 58.8346 404.166 58.8878 403.912 58.8694C403.657 58.851 403.413 58.7619 403.207 58.612C403.001 58.4622 402.841 58.2576 402.745 58.0215C402.649 57.7853 402.62 57.527 402.664 57.2757L403.947 49.7944C403.984 49.5761 403.968 49.3519 403.899 49.1413C403.831 48.9306 403.712 48.7398 403.554 48.5852L398.118 43.2867C397.936 43.1088 397.806 42.8833 397.745 42.6358C397.684 42.3883 397.694 42.1287 397.772 41.8862C397.851 41.6438 397.996 41.4282 398.191 41.2639C398.386 41.0996 398.623 40.9931 398.875 40.9564L406.387 39.8648C406.606 39.833 406.815 39.7483 406.994 39.618C407.173 39.4878 407.318 39.3159 407.416 39.1172L410.775 32.3105C410.888 32.0818 411.063 31.8894 411.279 31.7548C411.496 31.6202 411.746 31.5488 412 31.5488C412.255 31.5488 412.505 31.6202 412.722 31.7548C412.938 31.8894 413.113 32.0818 413.226 32.3105H413.225Z" fill="#FAC600"/>
<path d="M420.26 146.892C421.289 148.089 421.921 149.576 422.071 151.148C422.221 152.719 421.88 154.298 421.096 155.668C420.312 157.038 419.122 158.132 417.692 158.799C416.261 159.466 414.659 159.674 413.105 159.393C413.902 160.323 414.911 161.048 416.047 161.506C417.182 161.965 418.411 162.144 419.631 162.029C420.85 161.913 422.023 161.507 423.053 160.843C424.082 160.179 424.937 159.278 425.545 158.215C426.154 157.152 426.498 155.959 426.549 154.735C426.6 153.511 426.356 152.293 425.838 151.184C425.32 150.074 424.543 149.105 423.572 148.358C422.602 147.611 421.466 147.108 420.26 146.892V146.892ZM426.268 96.2305C427.297 97.4279 427.929 98.9145 428.079 100.486C428.228 102.057 427.888 103.637 427.104 105.007C426.319 106.377 425.13 107.47 423.7 108.137C422.269 108.804 420.667 109.012 419.113 108.732C419.91 109.661 420.919 110.386 422.055 110.845C423.19 111.304 424.419 111.483 425.639 111.367C426.858 111.252 428.032 110.845 429.061 110.181C430.09 109.518 430.945 108.616 431.553 107.553C432.162 106.491 432.506 105.297 432.557 104.073C432.608 102.85 432.364 101.632 431.846 100.522C431.328 99.4121 430.551 98.4431 429.58 97.6963C428.609 96.9494 427.473 96.4467 426.268 96.2305V96.2305ZM389.703 129.745C390.731 130.943 391.364 132.429 391.514 134.001C391.663 135.572 391.322 137.151 390.538 138.521C389.754 139.891 388.565 140.985 387.134 141.652C385.704 142.319 384.102 142.527 382.548 142.246C383.345 143.176 384.354 143.901 385.49 144.36C386.625 144.818 387.854 144.997 389.074 144.882C390.293 144.766 391.467 144.36 392.496 143.696C393.525 143.032 394.38 142.131 394.988 141.068C395.597 140.005 395.941 138.812 395.992 137.588C396.043 136.364 395.799 135.146 395.281 134.037C394.763 132.927 393.986 131.958 393.015 131.211C392.044 130.464 390.908 129.961 389.703 129.745V129.745Z" fill="#CA2E43"/>
<path d="M403.248 53.8678C403.619 53.8973 403.994 53.9167 404.374 53.9167C408.084 53.9163 411.644 52.4548 414.285 49.8484C416.925 47.2421 418.433 43.7007 418.482 39.9909L417.613 39.8648C417.394 39.833 417.186 39.7483 417.007 39.618C416.827 39.4878 416.682 39.3159 416.584 39.1172L413.225 32.3105C413.112 32.0818 412.938 31.8894 412.721 31.7548C412.505 31.6202 412.255 31.5488 412 31.5488C411.745 31.5488 411.495 31.6202 411.279 31.7548C411.062 31.8894 410.888 32.0818 410.775 32.3105L407.415 39.1175C407.317 39.3162 407.173 39.488 406.993 39.6182C406.814 39.7484 406.606 39.833 406.387 39.8648L398.875 40.9564C398.623 40.9931 398.386 41.0996 398.191 41.2639C397.996 41.4282 397.851 41.6438 397.772 41.8862C397.693 42.1287 397.684 42.3883 397.745 42.6358C397.806 42.8833 397.935 43.1088 398.118 43.2867L403.553 48.5849C403.712 48.7395 403.831 48.9304 403.899 49.1411C403.968 49.3518 403.984 49.576 403.946 49.7944L403.248 53.8678Z" fill="#FED402"/>
<path d="M430.013 87.5767C430.517 87.5767 431.01 87.4272 431.429 87.1471C431.849 86.8671 432.175 86.469 432.368 86.0032C432.561 85.5375 432.612 85.025 432.513 84.5306C432.415 84.0362 432.172 83.582 431.816 83.2256C431.459 82.8691 431.005 82.6263 430.511 82.528C430.016 82.4296 429.504 82.4801 429.038 82.673C428.572 82.866 428.174 83.1926 427.894 83.6118C427.614 84.0309 427.464 84.5237 427.464 85.0278C427.464 85.7038 427.733 86.3521 428.211 86.8301C428.689 87.3081 429.337 87.5767 430.013 87.5767ZM441.156 121.096C441.66 121.096 442.153 120.947 442.572 120.667C442.991 120.387 443.318 119.988 443.511 119.523C443.703 119.057 443.754 118.544 443.656 118.05C443.557 117.556 443.315 117.101 442.958 116.745C442.602 116.389 442.147 116.146 441.653 116.047C441.159 115.949 440.646 116 440.18 116.192C439.715 116.385 439.317 116.712 439.036 117.131C438.756 117.55 438.607 118.043 438.607 118.547C438.607 119.223 438.875 119.872 439.353 120.35C439.831 120.828 440.48 121.096 441.156 121.096ZM476.764 158.389L455.682 135.809C458.707 135.247 461.717 134.629 464.712 133.953C465.54 133.789 466.308 133.407 466.939 132.846C467.569 132.286 468.039 131.568 468.299 130.765C468.523 130.034 468.547 129.255 468.37 128.511C468.193 127.767 467.82 127.083 467.29 126.531L445.053 102.715C447.683 102.239 450.292 101.709 452.881 101.125C453.618 100.971 454.301 100.625 454.862 100.123C455.424 99.6217 455.843 98.9812 456.079 98.2661C456.283 97.6032 456.306 96.8979 456.145 96.2232C455.985 95.5484 455.648 94.9287 455.168 94.4279L423.016 59.9902C423.374 59.5572 423.634 59.0516 423.777 58.5085C423.921 57.9653 423.945 57.3974 423.849 56.8439L422.67 49.975L427.661 45.1105C428.184 44.6006 428.554 43.9544 428.73 43.2452C428.905 42.5359 428.878 41.7918 428.652 41.097C428.426 40.4023 428.011 39.7845 427.452 39.3136C426.893 38.8427 426.214 38.5376 425.491 38.4326L418.595 37.4307L415.51 31.1813C415.187 30.5261 414.687 29.9745 414.067 29.5887C413.446 29.203 412.73 28.9985 412 28.9985C411.269 28.9985 410.553 29.203 409.932 29.5887C409.312 29.9745 408.812 30.5261 408.489 31.1813L405.405 37.4307L398.508 38.4329C397.785 38.5378 397.106 38.843 396.548 39.3138C395.989 39.7847 395.573 40.4025 395.348 41.0973C395.122 41.7921 395.095 42.5362 395.27 43.2455C395.445 43.9547 395.815 44.6009 396.338 45.1108L401.329 49.975L400.151 56.8432C400.054 57.3967 400.078 57.9646 400.222 58.5077C400.365 59.0509 400.625 59.5564 400.983 59.9895L368.829 94.4283C368.349 94.9295 368.011 95.5498 367.851 96.2251C367.691 96.9004 367.714 97.6061 367.918 98.2695C367.927 98.2981 367.941 98.3239 367.95 98.3521C367.987 98.4756 368.034 98.596 368.089 98.7123C368.371 99.3202 368.79 99.8544 369.314 100.273C369.837 100.691 370.451 100.982 371.106 101.123C373.703 101.711 376.316 102.242 378.944 102.716L356.707 126.531C356.177 127.084 355.804 127.768 355.626 128.513C355.449 129.259 355.474 130.038 355.698 130.77C355.957 131.57 356.425 132.286 357.053 132.845C357.681 133.404 358.447 133.786 359.271 133.95C362.257 134.627 365.273 135.246 368.318 135.808L347.235 158.389C346.665 158.981 346.264 159.716 346.073 160.515C345.882 161.315 345.908 162.151 346.148 162.937C346.168 163.004 346.193 163.069 346.216 163.134C346.222 163.153 346.229 163.173 346.236 163.192C346.549 163.997 347.06 164.711 347.722 165.268C348.384 165.824 349.175 166.204 350.023 166.374C356.826 167.915 363.694 169.197 370.628 170.22L370.691 178.178C368.289 178.802 366.198 180.282 364.809 182.338C363.42 184.394 362.828 186.886 363.146 189.348C363.463 191.809 364.667 194.07 366.531 195.707C368.396 197.344 370.794 198.244 373.276 198.24C375.757 198.235 378.152 197.326 380.011 195.682C381.87 194.039 383.065 191.773 383.374 189.311C383.682 186.849 383.082 184.359 381.685 182.307C380.289 180.256 378.192 178.785 375.789 178.168L375.732 170.929C383.637 171.953 391.59 172.642 399.591 172.994L399.595 197.051C399.597 198.628 400.224 200.14 401.339 201.255C402.454 202.37 403.965 202.997 405.542 202.998H418.456C420.033 202.997 421.545 202.37 422.66 201.255C423.775 200.14 424.402 198.628 424.404 197.051V172.998C432.395 172.647 440.35 171.958 448.267 170.93L448.21 178.168C445.806 178.785 443.71 180.256 442.313 182.307C440.917 184.359 440.316 186.849 440.625 189.311C440.933 191.773 442.129 194.039 443.988 195.682C445.846 197.326 448.241 198.235 450.723 198.24C453.204 198.244 455.602 197.344 457.467 195.707C459.332 194.07 460.536 191.809 460.853 189.347C461.17 186.886 460.578 184.394 459.189 182.338C457.8 180.281 455.709 178.802 453.308 178.178L453.37 170.22C460.292 169.193 467.156 167.913 473.961 166.378C474.857 166.201 475.69 165.789 476.374 165.183C477.058 164.577 477.568 163.8 477.851 162.932C478.091 162.146 478.116 161.311 477.925 160.512C477.734 159.714 477.333 158.981 476.764 158.389H476.764ZM461.309 127.595C446.148 127.424 431.163 124.331 417.174 118.484C408.522 114.869 400.333 110.234 392.781 104.677C399.166 105.339 405.582 105.672 412.002 105.673C412.189 105.673 412.378 105.673 412.565 105.672C413.343 105.67 414.126 105.662 414.908 105.65C415.359 108.117 416.704 110.331 418.685 111.869C420.667 113.407 423.145 114.16 425.647 113.985C428.149 113.81 430.499 112.718 432.246 110.919C433.994 109.12 435.017 106.74 435.119 104.234C436.415 104.072 437.709 103.892 439.002 103.702L461.309 127.595ZM419.837 103.815C419.837 102.807 420.136 101.821 420.696 100.983C421.257 100.144 422.053 99.491 422.984 99.1051C423.916 98.7193 424.941 98.6184 425.93 98.815C426.918 99.0117 427.827 99.4972 428.54 100.21C429.253 100.923 429.738 101.831 429.935 102.82C430.131 103.809 430.03 104.834 429.645 105.766C429.259 106.697 428.605 107.493 427.767 108.053C426.929 108.613 425.943 108.912 424.935 108.912C423.584 108.911 422.288 108.373 421.332 107.418C420.376 106.462 419.839 105.166 419.837 103.815V103.815ZM406.753 42.3856C407.381 42.2944 407.977 42.0517 408.491 41.6786C409.004 41.3055 409.419 40.8131 409.7 40.2439L411.999 35.5857L414.298 40.2436C414.579 40.8129 414.994 41.3054 415.508 41.6786C416.021 42.0518 416.618 42.2944 417.246 42.3856L422.387 43.1326L418.666 46.7587C418.212 47.2017 417.872 47.7486 417.676 48.3522C417.48 48.9557 417.433 49.5979 417.541 50.2234L418.419 55.3439L413.822 52.9269C413.26 52.6311 412.635 52.4765 412 52.4763C411.365 52.4762 410.74 52.6306 410.178 52.9262L405.58 55.3439L406.458 50.2234C406.565 49.5978 406.519 48.9554 406.322 48.3517C406.126 47.748 405.786 47.2011 405.331 46.758L401.612 43.1326L406.753 42.3856ZM375.587 94.6594L408.206 59.7217L411.999 57.7279L415.791 59.721L426.462 71.15C423.151 74.3499 419.588 77.2773 415.807 79.9037C415.532 80.0944 415.297 80.3374 415.116 80.6189C414.935 80.9004 414.811 81.2148 414.751 81.5442C414.692 81.8736 414.697 82.2115 414.768 82.5386C414.839 82.8657 414.974 83.1757 415.165 83.4508C415.355 83.7259 415.598 83.9607 415.88 84.1419C416.161 84.3231 416.476 84.447 416.805 84.5067C417.135 84.5663 417.472 84.5605 417.8 84.4896C418.127 84.4187 418.437 84.284 418.712 84.0933C422.695 81.3262 426.45 78.244 429.94 74.8764L450.14 96.5108C444.816 97.6609 439.443 98.5683 434.037 99.2303C433.134 97.4352 431.721 95.9471 429.974 94.9532C428.228 93.9593 426.227 93.5039 424.222 93.6443C422.218 93.7847 420.299 94.5146 418.709 95.7422C417.118 96.9698 415.925 98.6403 415.281 100.544C414.37 100.56 413.457 100.572 412.55 100.574C412.367 100.575 412.184 100.575 412.002 100.575C402.799 100.575 393.61 99.8736 384.514 98.4768C393.14 96.8046 401.477 93.886 409.263 89.8128C409.862 89.4993 410.311 88.9606 410.513 88.3154C410.715 87.6702 410.652 86.9713 410.339 86.3724C410.025 85.7736 409.486 85.3238 408.841 85.122C408.196 84.9203 407.497 84.9831 406.898 85.2967C397.153 90.3852 386.525 93.5631 375.587 94.6594V94.6594ZM361.223 129.164L384.255 104.495C393.597 112.216 404.028 118.515 415.21 123.188C425.833 127.631 437.03 130.554 448.47 131.871C436.641 133.73 424.687 134.682 412.714 134.718C407.865 134.728 402.96 134.586 398.104 134.3C397.518 132.374 396.374 130.664 394.817 129.387C393.261 128.109 391.36 127.322 389.356 127.123C387.352 126.925 385.334 127.324 383.557 128.271C381.78 129.218 380.323 130.671 379.371 132.445C373.281 131.592 367.227 130.497 361.223 129.164V129.164ZM393.448 137.269C393.448 138.277 393.149 139.262 392.589 140.101C392.029 140.939 391.233 141.592 390.301 141.978C389.37 142.364 388.345 142.465 387.356 142.268C386.367 142.072 385.459 141.586 384.746 140.873C384.033 140.16 383.547 139.252 383.351 138.263C383.154 137.274 383.255 136.249 383.641 135.318C384.027 134.386 384.68 133.59 385.518 133.03C386.357 132.47 387.342 132.171 388.351 132.171C389.702 132.173 390.998 132.71 391.953 133.666C392.909 134.621 393.447 135.917 393.448 137.269ZM378.355 188.045C378.355 189.054 378.056 190.039 377.496 190.877C376.935 191.716 376.139 192.369 375.208 192.755C374.276 193.141 373.251 193.242 372.263 193.045C371.274 192.848 370.365 192.363 369.652 191.65C368.94 190.937 368.454 190.029 368.257 189.04C368.061 188.051 368.162 187.026 368.547 186.095C368.933 185.163 369.587 184.367 370.425 183.807C371.263 183.247 372.249 182.948 373.257 182.948C374.609 182.949 375.904 183.487 376.86 184.442C377.816 185.398 378.353 186.694 378.355 188.045V188.045ZM419.306 197.051C419.306 197.276 419.216 197.492 419.057 197.652C418.897 197.811 418.681 197.901 418.456 197.901H405.542C405.317 197.901 405.101 197.811 404.942 197.652C404.782 197.492 404.693 197.276 404.693 197.051L404.689 173.172C407.125 173.235 409.562 173.268 412.001 173.27C414.436 173.268 416.872 173.235 419.306 173.17L419.306 197.051ZM455.839 188.045C455.839 189.054 455.54 190.039 454.98 190.877C454.42 191.716 453.624 192.369 452.692 192.755C451.761 193.141 450.736 193.242 449.747 193.045C448.758 192.848 447.85 192.363 447.137 191.65C446.424 190.937 445.938 190.029 445.742 189.04C445.545 188.051 445.646 187.026 446.032 186.095C446.418 185.163 447.071 184.367 447.909 183.807C448.748 183.247 449.733 182.948 450.741 182.948C452.093 182.949 453.389 183.487 454.344 184.442C455.3 185.398 455.838 186.694 455.839 188.045V188.045ZM412.843 168.171C398.516 168.217 384.208 167.151 370.046 164.982C377.212 164.581 384.345 163.734 391.405 162.445C392.07 162.324 392.66 161.943 393.044 161.387C393.428 160.831 393.576 160.145 393.454 159.48C393.333 158.815 392.952 158.225 392.396 157.841C391.84 157.457 391.154 157.309 390.489 157.431C378.031 159.695 365.359 160.555 352.709 159.995L374.325 136.843C375.602 137.046 376.88 137.239 378.159 137.423C378.196 139.926 379.154 142.328 380.848 144.17C382.542 146.013 384.855 147.167 387.346 147.414C389.837 147.661 392.332 146.982 394.355 145.508C396.377 144.034 397.787 141.867 398.315 139.42C402.872 139.682 407.436 139.814 412.001 139.817C412.244 139.817 412.486 139.817 412.729 139.816C423.128 139.783 433.514 139.075 443.822 137.697C437.973 141.105 431.921 144.151 425.7 146.821C424.326 145.589 422.642 144.753 420.83 144.404C419.017 144.055 417.144 144.204 415.41 144.837C413.676 145.47 412.146 146.562 410.984 147.997C409.823 149.431 409.073 151.155 408.815 152.982C406.313 153.744 403.793 154.447 401.257 155.089C400.931 155.17 400.623 155.314 400.353 155.513C400.082 155.713 399.854 155.964 399.681 156.252C399.508 156.54 399.393 156.859 399.344 157.192C399.295 157.524 399.312 157.863 399.394 158.189C399.477 158.515 399.623 158.822 399.824 159.091C400.025 159.36 400.278 159.587 400.567 159.758C400.857 159.929 401.177 160.041 401.51 160.088C401.843 160.135 402.181 160.116 402.507 160.031C404.823 159.445 407.126 158.81 409.415 158.127C410.384 160.608 412.286 162.612 414.714 163.708C417.142 164.805 419.903 164.907 422.405 163.993C424.908 163.079 426.953 161.222 428.103 158.819C429.253 156.416 429.417 153.658 428.559 151.136C436.545 147.658 444.255 143.578 451.622 138.929L472.647 161.449C453.017 165.863 432.963 168.118 412.843 168.171V168.171ZM424.005 154.415C424.005 155.423 423.706 156.409 423.146 157.247C422.586 158.086 421.79 158.739 420.858 159.125C419.927 159.511 418.902 159.612 417.913 159.415C416.924 159.218 416.016 158.733 415.303 158.02C414.59 157.307 414.105 156.398 413.908 155.41C413.711 154.421 413.812 153.396 414.198 152.464C414.584 151.533 415.237 150.737 416.075 150.177C416.914 149.616 417.899 149.317 418.908 149.317C420.259 149.319 421.555 149.857 422.51 150.812C423.466 151.768 424.004 153.064 424.005 154.415V154.415ZM448.023 151.866C447.519 151.866 447.026 152.016 446.607 152.296C446.187 152.576 445.861 152.974 445.668 153.44C445.475 153.905 445.424 154.418 445.523 154.912C445.621 155.407 445.864 155.861 446.22 156.217C446.577 156.574 447.031 156.817 447.525 156.915C448.02 157.013 448.532 156.963 448.998 156.77C449.464 156.577 449.862 156.25 450.142 155.831C450.422 155.412 450.571 154.919 450.571 154.415C450.571 153.739 450.303 153.091 449.825 152.613C449.347 152.135 448.699 151.866 448.023 151.866ZM386.594 120.669C387.098 120.669 387.59 120.519 388.01 120.239C388.429 119.959 388.755 119.561 388.948 119.095C389.141 118.629 389.192 118.117 389.093 117.623C388.995 117.128 388.752 116.674 388.396 116.317C388.039 115.961 387.585 115.718 387.091 115.62C386.596 115.522 386.084 115.572 385.618 115.765C385.152 115.958 384.754 116.285 384.474 116.704C384.194 117.123 384.045 117.616 384.045 118.12C384.045 118.796 384.313 119.444 384.791 119.922C385.269 120.4 385.918 120.669 386.594 120.669ZM404.693 72.9138C404.188 72.9138 403.696 73.0633 403.277 73.3433C402.857 73.6234 402.531 74.0215 402.338 74.4872C402.145 74.9529 402.094 75.4654 402.193 75.9599C402.291 76.4543 402.534 76.9084 402.89 77.2649C403.247 77.6214 403.701 77.8641 404.195 77.9625C404.69 78.0608 405.202 78.0103 405.668 77.8174C406.134 77.6245 406.532 77.2978 406.812 76.8787C407.092 76.4595 407.241 75.9667 407.241 75.4626C407.241 74.7866 406.973 74.1383 406.495 73.6603C406.017 73.1823 405.369 72.9138 404.693 72.9138ZM374.764 150.633C374.259 150.633 373.767 150.783 373.348 151.063C372.928 151.343 372.602 151.741 372.409 152.207C372.216 152.672 372.165 153.185 372.264 153.679C372.362 154.174 372.605 154.628 372.961 154.984C373.318 155.341 373.772 155.584 374.266 155.682C374.761 155.78 375.273 155.73 375.739 155.537C376.205 155.344 376.603 155.017 376.883 154.598C377.163 154.179 377.312 153.686 377.312 153.182C377.312 152.506 377.044 151.858 376.566 151.38C376.088 150.902 375.44 150.633 374.764 150.633Z" fill="#282828"/>
</g>
</g>
<defs>
<linearGradient id="paint0_linear_3913_15182" x1="73.9646" y1="0" x2="73.9646" y2="199.57" gradientUnits="userSpaceOnUse">
<stop stop-color="white"/>
<stop offset="1" stop-color="white"/>
</linearGradient>
<linearGradient id="paint1_linear_3913_15182" x1="77.6186" y1="5.44482" x2="77.6186" y2="194.057" gradientUnits="userSpaceOnUse">
<stop stop-color="#41E699"/>
<stop offset="1" stop-color="#0DB275"/>
</linearGradient>
<linearGradient id="paint2_linear_3913_15182" x1="228.999" y1="57.7832" x2="241.819" y2="63.7611" gradientUnits="userSpaceOnUse">
<stop stop-color="white" stop-opacity="0.2"/>
<stop offset="1" stop-color="white" stop-opacity="0"/>
</linearGradient>
<linearGradient id="paint3_linear_3913_15182" x1="238.933" y1="27.6904" x2="303.403" y2="57.7538" gradientUnits="userSpaceOnUse">
<stop stop-color="white" stop-opacity="0.2"/>
<stop offset="1" stop-color="white" stop-opacity="0"/>
</linearGradient>
<clipPath id="clip0_3913_15182">
<rect width="538" height="200" fill="white"/>
</clipPath>
<clipPath id="clip1_3913_15182">
<rect width="174" height="174" fill="white" transform="translate(325 29)"/>
</clipPath>
</defs>
</svg>
